<?xml version="1.0" standalone="no"?>
<!DOCTYPE svg PUBLIC "-//W3C//DTD SVG 20010904//EN"
 "http://www.w3.org/TR/2001/REC-SVG-20010904/DTD/svg10.dtd">
<svg version="1.0" xmlns="http://www.w3.org/2000/svg"
 width="700.000000pt" height="700.000000pt" viewBox="0 0 700.000000 700.000000"
 preserveAspectRatio="xMidYMid meet">
<metadata>
Created by potrace 1.14, written by Peter Selinger 2001-2017
</metadata>
<g transform="translate(0.000000,700.000000) scale(0.100000,-0.100000)"
fill="#000000" stroke="none">
<path d="M4036 6347 c23 -42 28 -45 106 -66 46 -12 92 -25 103 -28 41 -11 -77
68 -151 102 -42 19 -78 35 -80 35 -1 0 8 -20 22 -43z"/>
<path d="M2170 6296 c-37 -14 -40 -27 -17 -76 8 -17 24 -27 51 -32 22 -5 42
-7 46 -6 8 4 -30 128 -38 127 -4 0 -23 -6 -42 -13z"/>
<path d="M2418 6182 c-25 -42 -45 -78 -43 -80 5 -6 185 80 185 88 0 4 -11 15
-25 24 -78 50 -65 54 -117 -32z"/>
<path d="M4393 6243 l-43 -15 15 -28 c11 -21 24 -30 55 -35 23 -4 43 -5 45 -3
5 4 -18 84 -25 91 -3 2 -24 -2 -47 -10z"/>
<path d="M4752 6242 c-22 -7 -68 -69 -58 -79 8 -9 135 8 142 18 3 5 3 23 -1
39 -5 25 -11 30 -33 29 -15 -1 -37 -4 -50 -7z"/>
<path d="M4003 6203 c-32 -25 -32 -26 -17 -55 16 -30 16 -30 35 -11 20 20 38
93 23 93 -5 -1 -23 -12 -41 -27z"/>
<path d="M5195 6218 c-16 -6 -31 -12 -33 -13 -8 -7 40 -95 51 -95 8 0 29 -3
46 -6 l31 -7 -24 64 c-13 35 -28 64 -32 65 -5 1 -22 -2 -39 -8z"/>
<path d="M4936 6126 c-20 -35 -36 -67 -36 -70 0 -3 25 -6 55 -6 l54 0 16 52
c8 28 14 52 12 53 -1 2 -16 10 -34 19 l-31 16 -36 -64z"/>
<path d="M2665 6113 c-36 -6 -45 -17 -45 -61 0 -26 5 -34 26 -43 15 -5 28 -8
29 -7 5 8 45 107 45 112 0 6 -4 6 -55 -1z"/>
<path d="M3616 6099 c-186 -18 -216 -22 -205 -33 3 -3 80 -8 171 -12 l167 -7
50 -44 51 -45 0 65 c0 36 3 72 6 81 7 19 22 19 -240 -5z"/>
<path d="M2225 6073 c4 -10 16 -41 27 -69 19 -50 21 -51 76 -64 32 -7 63 -15
71 -18 8 -3 5 10 -10 37 -39 68 -61 89 -118 111 -49 19 -53 19 -46 3z"/>
<path d="M4495 6055 c44 -8 95 -17 113 -20 18 -3 51 -22 73 -42 l39 -35 0 56
0 56 -152 -1 -153 -1 80 -13z"/>
<path d="M3880 5993 l0 -58 372 3 c205 2 375 5 377 8 3 2 -2 11 -10 18 -10 9
-117 23 -344 45 -181 17 -345 34 -362 37 l-33 5 0 -58z"/>
<path d="M2770 5979 c0 -33 4 -59 8 -57 5 2 58 26 118 53 l108 50 -64 6 c-36
4 -89 7 -117 8 l-53 1 0 -61z"/>
<path d="M2915 5941 l-120 -88 2 -54 c4 -79 5 -80 53 -66 40 12 43 17 115 155
42 78 74 142 73 142 -2 0 -57 -40 -123 -89z"/>
<path d="M3008 5893 c-54 -114 -64 -145 -60 -175 2 -24 10 -38 18 -38 11 0 14
-35 14 -195 l0 -195 73 -59 c39 -33 83 -68 97 -79 l25 -20 -45 -11 c-71 -19
-76 -21 -62 -30 9 -5 3 -16 -18 -36 l-30 -29 5 -130 c4 -95 3 -125 -5 -111 -6
11 -46 105 -89 209 -70 170 -77 193 -68 222 8 26 1 76 -38 266 -26 128 -52
239 -58 246 -6 7 -30 25 -54 39 l-44 26 -172 -17 c-143 -14 -174 -20 -187 -35
-10 -13 -54 -28 -133 -46 -117 -27 -118 -27 -113 -54 3 -14 19 -118 36 -231
38 -256 39 -260 55 -260 9 0 -1 -36 -33 -115 -27 -69 -49 -110 -53 -103 -4 7
-39 119 -79 248 -40 129 -75 240 -79 246 -3 7 -62 55 -130 109 l-124 97 -166
-68 c-91 -37 -194 -78 -227 -92 -61 -24 -61 -25 -73 -77 l-12 -53 -55 25 -55
25 -229 -92 c-127 -51 -230 -95 -230 -99 0 -3 12 -40 26 -82 22 -64 32 -80 62
-97 l34 -19 -114 -8 -115 -7 189 -411 c104 -227 194 -416 199 -422 5 -5 44
-22 86 -36 l77 -25 69 -195 69 -195 67 -42 c38 -23 72 -42 77 -42 5 0 115 38
244 84 229 82 236 84 263 68 37 -22 34 -33 -10 -31 -34 2 -223 -58 -461 -147
l-64 -24 -61 44 c-89 62 -85 61 -101 21 -15 -34 -14 -38 31 -145 43 -103 47
-109 67 -98 11 6 143 77 292 159 149 82 276 149 283 149 48 0 -27 -68 -560
-504 -313 -258 -568 -470 -566 -472 2 -3 199 30 436 71 238 42 436 75 441 73
5 -2 -65 -88 -155 -191 -91 -104 -165 -190 -165 -192 0 -2 17 -1 38 2 81 10
372 39 372 37 0 -1 -119 -113 -265 -248 -146 -135 -262 -246 -258 -246 4 0
119 32 256 71 137 39 250 69 252 67 2 -2 -81 -134 -185 -293 -103 -160 -187
-292 -185 -294 2 -2 158 54 345 124 188 70 344 125 346 122 4 -4 -34 -162 -63
-261 -5 -17 1 -15 48 11 30 17 111 60 180 97 115 60 126 64 123 44 -2 -13 -15
-90 -29 -172 -13 -83 -23 -151 -21 -153 2 -2 144 114 315 258 172 143 314 259
316 257 2 -2 -11 -57 -30 -123 -18 -66 -44 -162 -58 -213 l-26 -94 27 18 c15
10 77 50 137 91 l110 73 7 -82 c5 -46 15 -116 23 -157 8 -40 15 -79 15 -87 0
-12 -142 -14 -930 -14 l-930 0 0 -305 0 -305 2320 0 2320 0 0 305 0 305 -916
0 c-729 0 -915 3 -910 13 24 59 67 207 77 270 7 42 16 77 20 77 3 0 57 -48
118 -106 61 -59 115 -103 119 -100 4 4 8 101 10 216 l4 209 325 -245 c178
-135 326 -244 327 -242 2 1 -16 106 -40 233 -24 126 -42 230 -41 232 3 2 127
-78 498 -320 116 -76 209 -132 206 -125 -3 7 -57 130 -121 272 -64 142 -115
260 -114 262 2 1 160 -90 351 -203 192 -113 350 -203 352 -202 2 2 -140 215
-315 474 -174 259 -316 471 -315 473 2 2 685 -364 740 -396 11 -7 22 -20 -384
452 -161 186 -291 340 -289 342 2 1 172 -37 378 -86 206 -48 376 -87 378 -85
1 1 -238 207 -531 456 -323 274 -530 457 -523 461 6 4 35 13 64 19 30 7 51 17
49 23 -2 6 -12 34 -21 63 l-17 51 -105 41 c-58 23 -110 41 -115 41 -5 0 -9
-16 -9 -35 0 -31 -5 -37 -47 -59 l-48 -24 -140 35 c-77 19 -238 58 -357 87
l-217 53 -46 -30 c-52 -34 -70 -64 -140 -235 -42 -104 -57 -173 -80 -375 -8
-73 -28 -71 -35 2 -7 69 -45 106 -119 116 -41 6 -55 13 -73 37 -30 43 -95 70
-137 58 -18 -5 -39 -15 -47 -21 -12 -10 -20 -7 -42 13 -60 56 -124 64 -185 22
l-37 -25 -27 20 c-36 29 -109 28 -154 -2 -52 -35 -119 -152 -126 -221 -4 -38
-10 -56 -19 -56 -8 0 -14 5 -14 10 0 6 -9 76 -20 158 -19 139 -24 156 -88 306
l-67 159 -62 29 -63 28 -234 -65 c-138 -38 -253 -65 -281 -65 l-48 0 7 63 6
63 -35 17 -36 17 -64 -41 -65 -41 -42 15 -43 15 34 1 c20 1 54 14 83 32 39 25
46 34 37 45 -16 20 5 18 79 -7 l61 -20 115 36 c64 19 116 39 116 42 0 4 -14
22 -32 40 -30 31 -30 33 -10 33 12 0 45 -14 73 -32 l51 -31 101 22 c55 12 103
24 106 26 3 3 -4 24 -15 48 l-21 42 28 105 28 105 -1 -105 c-1 -118 20 -195
51 -186 9 3 52 15 96 27 44 11 84 24 88 29 5 4 -9 21 -30 39 -35 29 -36 31
-13 31 13 0 38 -14 56 -31 36 -35 27 -35 165 1 l35 10 19 92 c10 51 19 96 21
99 2 4 43 0 91 -8 77 -12 102 -12 202 2 63 8 116 13 119 11 2 -3 -1 -19 -7
-36 -9 -28 -8 -31 7 -26 9 3 45 12 79 21 34 8 70 18 79 22 14 5 15 1 10 -23
-6 -28 -4 -30 56 -52 79 -28 89 -28 117 2 l23 25 -36 60 -37 60 18 188 18 188
-39 251 -39 252 31 40 c18 22 32 43 32 47 0 4 -14 31 -32 59 l-31 51 -5 178
-5 178 -70 64 -71 65 -302 0 -301 0 -65 -137z m-333 -2045 c-3 -29 -9 -97 -14
-151 -5 -54 -12 -102 -17 -106 -8 -7 -485 -111 -508 -111 -6 0 1 12 15 28 57
64 59 73 4 20 -54 -51 -68 -59 -142 -77 -96 -25 -96 -25 -87 -8 4 6 -2 4 -13
-5 -17 -16 -53 -25 -53 -14 0 5 131 280 135 285 4 3 660 188 678 190 4 1 5
-23 2 -51z m1990 -44 c170 -41 312 -78 316 -82 4 -4 32 -67 62 -139 45 -109
52 -133 38 -133 -26 0 -701 136 -707 143 -4 3 12 27 34 54 23 26 39 49 37 52
-3 2 -31 -20 -62 -50 -47 -44 -58 -51 -61 -36 -6 30 4 43 60 75 29 18 46 32
38 32 -8 0 -33 -11 -55 -25 -49 -30 -55 -30 -55 -5 0 13 9 22 28 26 46 10 48
12 10 13 -42 1 -43 3 -52 104 l-5 58 32 -6 c18 -4 171 -41 342 -81z m-2826
-315 l-52 -104 16 -150 c8 -82 12 -153 9 -157 -8 -8 -428 -61 -443 -56 -6 2
107 133 252 291 144 157 265 285 267 283 2 -2 -20 -50 -49 -107z m888 -384
c40 -242 72 -447 70 -455 -2 -11 -101 -36 -402 -101 -346 -74 -401 -83 -406
-70 -9 24 -133 840 -128 845 8 9 765 225 779 223 11 -2 31 -100 87 -442z m781
380 c26 -31 26 -37 7 -180 -8 -60 -15 -156 -15 -211 0 -82 -3 -106 -17 -123
-38 -45 -118 -44 -162 3 -23 24 -23 27 -10 91 10 52 10 75 1 111 -7 24 -12 60
-12 79 0 42 21 50 117 42 61 -5 63 -4 41 11 -14 10 -50 18 -92 21 l-68 3 4 50
c6 58 31 96 79 121 45 24 97 16 127 -18z m1221 -30 c211 -35 386 -67 389 -70
5 -5 -110 -815 -125 -881 l-4 -20 -103 21 -103 22 -347 -90 c-190 -50 -349
-87 -353 -84 -3 4 -2 17 4 30 10 21 38 29 314 86 167 35 308 67 312 71 5 4
-12 11 -37 14 -34 5 -106 -5 -302 -44 -141 -28 -258 -49 -260 -47 -3 2 3 13
13 24 15 17 51 25 231 49 116 15 212 31 212 35 0 15 -82 13 -244 -4 -92 -10
-170 -16 -174 -13 -3 3 0 17 6 31 11 24 15 25 109 26 l98 1 -85 21 c-47 11
-86 20 -87 21 -1 1 6 53 15 116 l17 114 40 8 c102 21 226 50 223 54 -2 2 -60
-3 -127 -12 -68 -8 -125 -13 -128 -10 -2 2 -2 24 2 48 l6 43 127 -2 c138 -2
124 10 -26 22 -45 4 -85 11 -87 16 -3 4 9 112 27 239 26 186 35 230 48 230 8
0 188 -29 399 -65z m726 -195 c149 -128 271 -236 273 -240 1 -3 -111 6 -249
22 -138 16 -254 27 -256 24 -3 -2 84 -111 192 -241 109 -130 195 -238 193
-240 -2 -2 -64 26 -138 62 -297 144 -324 155 -308 130 47 -71 420 -709 417
-711 -2 -2 -107 52 -233 120 -126 68 -231 124 -232 124 -2 0 35 -111 82 -247
46 -135 83 -250 82 -255 -2 -5 -124 66 -271 156 -246 152 -268 163 -263 138
13 -68 47 -324 43 -329 -3 -2 -139 77 -303 176 -164 99 -299 180 -300 178 -1
-1 13 -105 32 -232 18 -126 34 -239 34 -250 0 -14 -26 6 -92 73 -87 86 -95 97
-118 169 -28 86 -107 248 -162 333 l-36 55 -11 184 -10 184 28 36 c15 20 38
53 50 74 26 43 34 47 25 13 -4 -19 42 -447 49 -451 1 -1 16 -11 32 -22 22 -15
116 -36 375 -82 190 -34 353 -64 362 -67 26 -8 321 268 330 310 4 17 35 237
69 488 l62 458 -27 62 c-22 50 -24 59 -9 46 10 -8 140 -120 288 -248z m-2222
229 c51 -26 56 -36 42 -83 -7 -24 -16 -68 -20 -98 l-7 -55 -47 -12 c-27 -7
-64 -23 -84 -37 l-36 -24 -6 37 c-4 21 -9 46 -12 55 -6 25 40 41 100 34 28 -3
45 -1 42 4 -8 13 -73 30 -113 30 -30 0 -33 2 -26 23 13 43 33 74 69 106 38 33
63 38 98 20z m491 -43 c50 -49 55 -170 15 -344 -31 -134 -45 -152 -120 -152
-66 0 -79 23 -78 133 1 50 4 103 8 117 10 35 55 54 128 55 62 0 62 0 43 20
-16 15 -37 20 -95 23 -41 2 -75 8 -75 12 0 38 25 119 42 137 30 32 100 32 132
-1z m182 -97 c20 -19 24 -32 24 -81 0 -32 -2 -58 -5 -58 -3 0 -19 9 -34 21
-16 12 -44 24 -62 28 -23 5 -34 12 -33 24 0 9 1 36 2 58 l2 42 41 -6 c23 -3
52 -15 65 -28z m-856 -159 c0 -27 -3 -30 -33 -30 -46 0 -78 -36 -84 -94 -5
-43 -8 -46 -34 -46 -36 0 -52 29 -53 92 -1 36 4 52 23 72 23 25 27 26 154 34
24 2 27 -1 27 -28z m215 10 c11 -12 18 -36 19 -62 1 -113 -41 -183 -137 -229
l-62 -29 43 0 c40 0 43 -2 36 -22 l-6 -23 25 24 c24 21 33 23 86 18 113 -10
191 -77 191 -163 0 -58 -27 -122 -58 -138 -25 -13 -25 -13 16 -20 31 -4 45
-13 55 -33 l14 -26 7 27 c15 61 46 13 46 -73 0 -67 -8 -75 -57 -54 -18 7 -40
13 -50 12 -11 0 -6 -5 12 -11 16 -6 58 -31 93 -55 38 -26 74 -43 90 -42 l27 0
-25 10 c-61 25 -67 46 -53 192 4 52 10 67 22 68 9 0 3 6 -14 12 -16 7 -37 17
-46 22 -67 43 -65 170 5 234 22 21 40 25 126 32 124 10 164 22 191 60 11 16
27 29 36 29 13 0 15 -9 9 -57 -8 -76 -55 -169 -118 -238 -47 -52 -49 -55 -25
-55 23 0 26 -4 33 -62 4 -35 10 -139 14 -233 4 -93 7 -158 8 -142 1 15 6 27
10 27 19 0 132 -253 157 -351 30 -115 15 -279 -42 -451 -25 -77 -26 -78 -59
-78 -37 0 -34 -7 -53 119 -19 122 -30 119 -31 -6 l0 -113 -171 0 -172 0 6 79
c7 94 29 152 69 186 40 34 66 33 71 -2 4 -26 4 -25 6 5 3 73 -53 46 -181 -86
-47 -49 -91 -100 -98 -113 -7 -13 15 5 48 41 l61 65 1 -32 c0 -18 -9 -57 -21
-88 l-20 -55 -144 0 -144 0 -8 58 c-4 31 -8 136 -8 232 0 152 3 185 23 255 24
82 83 203 130 265 l26 34 6 -24 c10 -42 31 157 29 276 -1 89 1 109 15 119 14
11 13 13 -13 18 -45 9 -130 84 -198 176 -34 46 -81 97 -105 114 -24 17 -47 36
-51 42 -12 14 -1 179 14 207 16 30 28 38 62 38 33 0 56 11 116 57 50 38 90 42
116 13z m620 -5 c14 -13 25 -31 25 -39 0 -32 -42 -126 -70 -156 -32 -34 -59
-38 -83 -12 -15 16 -15 22 2 78 11 33 22 81 26 107 7 46 8 47 42 47 23 0 42
-8 58 -25z m198 8 c41 -11 43 -77 4 -142 l-20 -34 -75 6 c-40 3 -75 7 -77 9
-2 2 6 37 17 78 11 41 22 81 24 88 3 11 17 12 57 7 28 -3 60 -9 70 -12z
m-2232 -351 c12 -95 19 -175 17 -178 -6 -6 -338 -63 -338 -58 0 8 293 415 296
412 2 -2 13 -81 25 -176z m1244 -180 c27 -56 46 -80 84 -107 44 -32 51 -42 58
-83 12 -69 9 -182 -5 -224 -7 -20 -36 -67 -64 -105 -58 -78 -111 -182 -130
-255 -10 -41 -21 -57 -52 -80 -22 -15 -41 -26 -43 -24 -2 2 13 96 32 210 20
114 35 212 33 217 -2 6 -149 -121 -326 -280 -178 -160 -324 -291 -326 -291 -2
0 18 88 46 196 27 108 48 198 46 199 -2 2 -77 -56 -168 -127 -91 -71 -177
-139 -193 -150 l-27 -19 9 23 c21 53 170 358 176 358 3 0 161 29 352 65 299
55 351 68 384 91 24 17 39 35 39 48 0 11 7 109 15 216 8 107 15 197 15 199 0
10 12 -10 45 -77z m-1201 -163 c4 -39 10 -78 13 -86 3 -8 70 -70 149 -138
l144 -124 -173 -94 c-94 -53 -226 -125 -291 -161 -66 -36 -122 -64 -124 -62
-2 3 78 113 177 245 100 132 181 242 181 244 0 2 -82 -11 -182 -29 -101 -18
-189 -33 -196 -34 -8 0 53 70 134 155 81 85 151 155 155 155 3 0 10 -32 13
-71z m735 -3 c-2 -2 -129 -34 -282 -70 -266 -64 -280 -67 -298 -50 -10 9 -19
22 -19 28 0 7 105 27 278 53 268 39 330 47 321 39z m12 -60 c-7 -8 -125 -42
-263 -76 -226 -55 -252 -60 -266 -46 -9 9 -14 17 -11 20 5 5 507 113 533 115
15 1 16 -2 7 -13z m-201 -106 c-259 -97 -256 -96 -279 -76 -12 11 -18 22 -15
25 7 7 352 88 379 89 11 1 -27 -17 -85 -38z m530 -1140 l0 -50 -230 0 c-245 0
-275 -5 -315 -50 -16 -17 -20 -36 -20 -85 0 -112 41 -135 240 -135 l135 0 0
45 0 45 -120 0 -120 0 0 45 0 45 215 0 215 0 0 -140 0 -140 -280 0 c-228 0
-288 3 -327 16 -111 37 -165 100 -171 200 -6 87 22 143 92 189 85 57 129 64
424 64 l262 1 0 -50z m337 -35 l102 -85 101 85 102 85 109 0 c60 0 109 -2 109
-4 0 -2 -72 -63 -160 -136 l-160 -133 0 -98 0 -99 -95 0 -95 0 0 99 0 99 -171
136 -172 136 115 0 114 0 101 -85z m922 -87 c58 -92 108 -168 111 -168 3 0 50
76 105 170 l100 170 133 0 132 0 0 -235 0 -235 -85 0 -84 0 -3 157 -3 157 -94
-157 -93 -157 -99 0 -98 0 -103 161 -103 162 -3 -162 -2 -161 -95 0 -95 0 0
235 0 236 137 -3 137 -3 105 -167z"/>
<path d="M2004 3656 c-4 -10 -2 -22 4 -28 8 -8 13 -7 18 6 4 10 2 22 -4 28 -8
8 -13 7 -18 -6z"/>
<path d="M2455 3360 c-4 -7 -3 -16 3 -22 14 -14 45 -2 40 15 -6 16 -34 21 -43
7z"/>
<path d="M2121 2936 c-16 -19 -6 -36 20 -36 15 0 20 6 17 22 -4 27 -21 33 -37
14z"/>
<path d="M4415 3110 c-4 -7 -3 -16 3 -22 14 -14 45 -2 40 15 -6 16 -34 21 -43
7z"/>
<path d="M3210 3120 c-5 -50 -8 -57 -49 -87 -24 -19 -49 -32 -55 -30 -6 2 -13
26 -16 53 l-5 49 -13 -36 c-29 -82 25 -115 100 -63 43 30 51 50 46 120 l-4 49
-4 -55z"/>
<path d="M3483 2331 c28 -18 54 -45 62 -64 9 -19 14 -25 15 -14 0 15 6 17 35
11 23 -4 35 -2 35 5 0 6 -9 11 -19 11 -10 0 -42 16 -71 35 -29 19 -64 38 -79
41 -19 5 -14 -2 22 -25z"/>
<path d="M3619 1770 c-18 -22 -82 -84 -143 -139 -61 -54 -127 -120 -146 -147
-31 -44 -25 -40 70 46 155 141 226 213 244 248 22 43 14 40 -25 -8z"/>
<path d="M3676 1746 c-22 -30 -26 -44 -25 -98 l1 -63 12 60 c7 33 20 75 30 93
24 46 14 50 -18 8z"/>
<path d="M4777 5873 c-4 -53 -6 -98 -4 -99 3 -3 361 -24 363 -21 1 1 -28 41
-65 88 l-68 85 -99 22 c-54 12 -104 22 -110 22 -7 0 -13 -37 -17 -97z"/>
<path d="M3906 5874 l38 -47 -17 -142 c-10 -78 -16 -148 -13 -156 17 -56 15
-55 41 -24 13 17 25 28 25 25 1 -3 12 -135 24 -294 l23 -289 -37 -93 -36 -94
18 -172 c9 -95 17 -186 17 -202 1 -28 2 -28 19 -12 18 15 23 13 86 -35 l68
-51 67 7 c65 6 69 8 110 57 l43 49 84 477 c46 261 87 479 91 483 5 4 19 9 33
11 24 3 26 9 50 142 38 211 49 195 66 -86 l6 -108 -93 -375 c-73 -296 -96
-376 -110 -380 -14 -5 -18 -24 -24 -123 -8 -148 -7 -145 -25 -149 -11 -3 -12
-2 -3 4 10 7 2 20 -27 48 l-40 39 -43 -42 c-41 -42 -41 -43 -22 -58 11 -8 29
-13 40 -10 57 14 74 14 33 0 -42 -13 -48 -18 -48 -44 0 -23 12 -38 67 -81 39
-31 87 -58 117 -67 l50 -15 39 47 c52 61 68 59 23 -4 -19 -27 -32 -51 -28 -53
4 -3 26 -8 50 -12 37 -6 49 -3 82 20 36 25 45 26 127 24 48 -2 104 0 123 4
l35 8 -33 -22 c-28 -18 -46 -21 -110 -20 -74 2 -79 0 -106 -27 l-28 -30 98
-32 c68 -23 102 -30 113 -23 9 5 34 20 56 33 l40 24 -23 -31 -23 -32 33 -14
c18 -7 121 -46 228 -86 180 -67 196 -75 210 -104 11 -24 71 -70 241 -184 l225
-152 121 306 121 305 -21 76 -20 76 57 50 57 51 79 215 80 215 20 179 c11 99
20 189 20 201 0 19 -44 39 -370 169 -204 82 -372 147 -374 145 -1 -2 -32 -69
-67 -149 l-65 -144 -58 -15 -58 -16 -78 -155 c-76 -152 -77 -157 -84 -249 -3
-52 -8 -96 -10 -98 -7 -7 -160 -63 -163 -59 -2 1 28 24 67 50 l70 46 0 89 c0
86 5 104 116 461 63 205 114 373 112 375 -2 1 -22 12 -46 24 -33 17 -48 33
-62 66 -16 37 -24 45 -52 49 -28 5 -598 56 -620 56 -5 0 -8 45 -8 100 l0 100
-426 0 -426 0 38 -46z"/>
<path d="M3845 5733 c7 -167 9 -181 34 -224 l26 -46 0 186 0 186 -29 38 c-15
20 -31 37 -33 37 -3 0 -2 -80 2 -177z"/>
<path d="M1383 5848 c12 -39 16 -43 52 -49 22 -4 41 -6 42 -5 1 1 -4 22 -11
46 -12 43 -15 45 -54 48 l-41 3 12 -43z"/>
<path d="M2615 5850 c-55 -22 -95 -39 -90 -39 6 0 43 4 84 9 l74 10 44 -36
c24 -20 46 -34 48 -32 2 2 -3 32 -13 66 -11 43 -21 62 -32 61 -8 -1 -60 -18
-115 -39z"/>
<path d="M5150 5846 c0 -3 12 -30 26 -60 l27 -53 60 -7 c33 -3 74 -6 92 -6 31
0 34 -4 55 -59 21 -57 23 -59 73 -74 29 -8 55 -12 58 -8 14 14 51 143 43 151
-5 4 -97 31 -204 60 -107 28 -203 53 -212 56 -10 3 -18 3 -18 0z"/>
<path d="M1702 5818 c-12 -6 -21 -16 -19 -21 1 -5 31 -29 65 -54 l63 -45 -33
66 c-34 69 -38 72 -76 54z"/>
<path d="M2008 5763 c-71 -2 -128 -7 -128 -11 0 -9 61 -286 63 -288 13 -8 121
-54 122 -52 2 2 -4 67 -12 146 -9 78 -14 145 -11 147 3 3 60 13 128 23 75 10
125 22 128 30 3 9 -17 11 -80 10 -45 -1 -140 -4 -210 -5z"/>
<path d="M1686 5687 c157 -140 199 -176 202 -169 1 4 -8 39 -21 77 l-23 70
-95 32 c-52 17 -98 32 -103 32 -4 1 14 -19 40 -42z"/>
<path d="M2860 5709 c-19 -12 -37 -23 -39 -25 -2 -2 9 -87 25 -190 15 -103 29
-183 31 -178 2 5 14 86 27 179 16 120 20 179 14 202 -11 39 -13 39 -58 12z"/>
<path d="M5554 5473 c-31 -98 -59 -184 -62 -191 -3 -10 12 -12 69 -10 l73 3
20 83 c11 45 25 82 31 82 6 0 77 -27 158 -59 81 -33 147 -58 147 -56 0 2 -154
136 -362 313 -15 13 -21 0 -74 -165z"/>
<path d="M2948 5628 c-14 -12 -32 -144 -51 -382 -2 -17 10 -23 73 -37 106 -26
109 -24 46 24 l-57 42 6 183 c4 100 5 182 3 182 -2 0 -11 -6 -20 -12z"/>
<path d="M4667 5575 c-3 -22 -9 -76 -13 -120 -8 -91 -15 -105 -54 -105 -26 0
-29 -3 -38 -62 -30 -177 -32 -170 42 -139 42 19 46 23 65 86 17 54 21 92 20
199 -1 72 -4 142 -8 156 -7 23 -8 21 -14 -15z"/>
<path d="M5878 5493 c23 -26 70 -78 104 -114 l63 -67 149 -52 c81 -28 156 -54
165 -57 14 -5 -111 77 -413 269 l-109 70 41 -49z"/>
<path d="M3906 5406 l-47 -55 28 -226 c15 -123 30 -221 34 -217 4 4 23 68 43
142 l35 135 -20 134 c-10 74 -21 136 -23 138 -2 2 -24 -21 -50 -51z"/>
<path d="M1960 5413 c0 -22 104 -413 110 -413 4 0 19 22 34 50 24 45 26 51 12
72 -7 13 -19 69 -26 126 l-12 103 -54 34 c-57 37 -64 40 -64 28z"/>
<path d="M6480 5376 c0 -36 5 -48 27 -66 29 -23 35 -20 51 27 12 35 9 39 -45
67 l-33 17 0 -45z"/>
<path d="M5521 5235 c-40 -13 -75 -26 -78 -28 -5 -6 -103 -351 -100 -354 1 -1
31 51 65 116 60 112 65 118 116 143 48 24 54 31 64 71 7 24 14 52 18 61 8 20
6 20 -85 -9z"/>
<path d="M353 5217 c-46 -11 -83 -24 -83 -28 0 -3 26 -34 58 -68 l57 -62 115
-14 c63 -7 116 -12 118 -10 2 1 -17 14 -41 28 -38 22 -49 38 -78 102 -21 49
-38 75 -48 74 -9 -1 -53 -11 -98 -22z"/>
<path d="M6460 5200 c0 -25 5 -30 38 -39 54 -16 58 -14 80 23 l20 34 -45 6
c-85 11 -93 9 -93 -24z"/>
<path d="M2883 5169 c37 -93 101 -236 108 -243 5 -6 9 14 9 50 0 38 6 68 16
82 8 12 10 22 5 22 -26 0 -7 22 42 47 l52 27 -45 7 c-25 3 -78 10 -119 14 -61
6 -73 5 -68 -6z"/>
<path d="M4570 5092 l-55 -27 -36 -225 c-21 -124 -36 -225 -35 -226 0 -1 15
-4 33 -7 31 -6 33 -4 42 31 61 235 121 470 121 475 0 11 -12 7 -70 -21z"/>
<path d="M3948 4930 c-27 -112 -41 -197 -49 -307 l-11 -151 42 -56 c24 -31 44
-55 47 -53 2 2 -6 89 -18 193 l-22 189 33 96 c31 91 33 101 24 170 l-9 73 -37
-154z"/>
<path d="M6501 4978 c-36 -216 -36 -205 -11 -258 l23 -49 108 157 c59 86 106
158 104 160 -6 6 -180 52 -196 52 -13 0 -20 -15 -28 -62z"/>
<path d="M6371 4449 c-70 -173 -73 -183 -56 -196 11 -7 24 -13 31 -13 7 0 49
71 93 157 l81 157 -28 35 c-15 19 -33 36 -38 38 -5 2 -43 -79 -83 -178z"/>
<path d="M4416 4498 l-18 -93 29 -24 28 -24 8 59 c11 89 5 168 -13 172 -13 2
-20 -17 -34 -90z"/>
<path d="M3195 4368 c-8 -26 -27 -130 -23 -132 6 -6 318 70 326 79 5 6 12 23
16 38 6 27 6 28 -26 23 -135 -23 -158 -24 -210 -10 -65 17 -78 17 -83 2z"/>
<path d="M3978 4317 c-32 -17 -58 -34 -58 -37 0 -5 392 -82 396 -77 1 1 -1 17
-3 35 l-5 32 -77 0 c-63 0 -82 4 -111 23 -91 61 -79 59 -142 24z"/>
<path d="M3638 4316 l-66 -19 -25 -59 -26 -58 180 0 179 0 0 35 0 34 -84 27
c-58 18 -86 31 -88 43 -3 15 -8 15 -70 -3z"/>
<path d="M3333 4216 c-73 -17 -133 -33 -133 -36 0 -3 27 -13 61 -21 56 -15 66
-15 133 1 90 21 96 24 96 61 0 35 10 35 -157 -5z"/>
<path d="M3930 4202 l0 -40 73 -13 c74 -14 87 -22 139 -89 26 -33 30 -35 104
-38 68 -4 76 -2 71 12 -4 9 -9 38 -13 66 -4 27 -12 56 -18 64 -6 8 -72 25
-161 41 -82 14 -160 29 -172 32 -21 5 -23 2 -23 -35z"/>
<path d="M6248 4198 c-50 -42 -55 -59 -39 -132 6 -29 8 -27 60 58 45 74 51 90
40 101 -12 12 -21 7 -61 -27z"/>
<path d="M2885 4124 c-82 -19 -153 -35 -157 -37 -5 -1 7 -14 25 -28 l33 -27
98 18 c94 17 100 20 145 64 56 56 57 56 -144 10z"/>
<path d="M4355 4090 c4 -41 10 -78 14 -82 7 -8 273 -79 278 -75 2 3 -26 85
-33 95 -1 2 -39 12 -85 22 -74 17 -87 23 -131 67 l-49 48 6 -75z"/>
<path d="M3095 4106 c-39 -41 -44 -43 -142 -60 -57 -10 -103 -21 -103 -24 0
-4 4 -13 9 -21 7 -11 39 -9 197 13 104 15 197 30 207 32 12 4 17 16 17 39 0
36 -4 39 -75 50 -22 4 -47 8 -55 10 -8 2 -33 -16 -55 -39z"/>
<path d="M3426 4126 c-71 -20 -81 -25 -87 -50 l-8 -29 122 8 c67 4 124 8 126
10 8 9 -44 85 -58 84 -9 0 -52 -11 -95 -23z"/>
<path d="M3850 4121 c0 -28 2 -29 118 -61 64 -18 124 -35 132 -38 8 -2 -7 18
-35 47 -44 45 -57 52 -110 61 -33 6 -70 13 -82 15 -20 5 -23 1 -23 -24z"/>
<path d="M3636 4073 c14 -32 28 -64 31 -70 3 -7 13 -13 22 -13 9 0 79 -7 156
-15 183 -19 175 -19 175 9 0 21 -13 28 -116 67 -78 29 -119 50 -122 62 -4 14
-17 17 -88 17 l-84 0 26 -57z"/>
<path d="M1003 3885 l112 -226 3 49 c2 30 -8 92 -23 153 -50 200 -37 177 -121
215 -41 19 -77 34 -80 34 -2 0 47 -101 109 -225z"/>
<path d="M2575 4063 c-55 -14 -102 -28 -104 -30 -3 -2 11 -20 31 -40 l36 -36
132 13 132 13 -53 53 c-29 30 -58 54 -64 53 -5 0 -55 -12 -110 -26z"/>
<path d="M2294 3978 c-49 -22 -94 -44 -101 -49 -12 -10 -27 -59 -20 -65 4 -4
297 94 305 102 2 1 -18 14 -45 28 l-49 24 -90 -40z"/>
<path d="M4710 3979 c0 -59 7 -65 133 -113 67 -25 137 -46 155 -46 30 0 32 2
32 38 l0 38 -147 48 c-82 27 -154 51 -160 53 -8 3 -13 -4 -13 -18z"/>
<path d="M5350 3754 c0 -14 84 -164 92 -164 4 0 112 -52 239 -115 128 -64 237
-114 243 -112 11 4 -16 23 -297 217 -108 74 -169 123 -173 137 -4 15 -18 26
-43 33 -42 11 -61 13 -61 4z"/>
</g>
</svg>
